:FULLY-SPECIFIED
:FORCE-ALL-JOINTS-BE-3DOF
:DEGREES
1529
root -5.6688 15.3463 19.6311 -171.237 -15.0646 178.707
lfemur -47.3456 9.80246 -26.7707
ltibia 84.9919 -0 0
lfoot -11.2307 18.5731 0.0946035
ltoes -27.065 0 0
rfemur -45.2901 -2.66104 16.686
rtibia 71.9742 -0 0
rfoot -18.8224 -8.4011 -0.119016
rtoes -23.2766 0 0
lowerback 19.4571 0.454128 2.06012
upperback -1.21535 1.62498 3.10677
thorax -12.1916 0.804505 1.74691
lowerneck -3.78152 7.50792 3.09155
upperneck 3.92316 10.6067 -9.92012
head 2.5412 5.16632 -3.03603
lclavicle -1.19271e-15 -4.77083e-15 0
lhumerus 54.9555 -61.306 49.6844
lradius 109.838 -0 0
lwrist 14.4158 0 0
lhand -24.0128 38.8286 -0.121292
lfingers 7.12502 -0 0
lthumb 2.46887 68.8759 -0.0872587
rclavicle -1.19271e-15 -4.77083e-15 0
rhumerus -50.3411 45.6626 -89.8793
rradius 116.92 -0 0
rwrist -45.8854 0 0
rhand 8.82145 -31.029 0.128079
rfingers 7.12502 -0 0
rthumb 34.0308 -58.0673 0.0701632
1530
root -5.73234 15.3521 19.6552 -171.107 -17.6886 178.324
lfemur -46.8472 9.95605 -26.7573
ltibia 84.061 -0 0
lfoot -11.4035 18.3906 0.102176
ltoes -27.4884 0 0
rfemur -45.5233 -3.06409 16.6857
rtibia 72.803 -0 0
rfoot -18.6867 -8.62814 -0.134339
rtoes -22.8918 0 0
lowerback 19.398 0.397797 1.74803
upperback -1.20825 1.46982 3.11572
thorax -12.136 0.750092 1.97675
lowerneck -3.84581 7.25261 2.88959
upperneck 3.91489 10.2532 -9.70817
head 2.51859 4.9904 -2.95477
lclavicle -1.19271e-15 -4.77083e-15 0
lhumerus 52.6105 -60.3158 51.7011
lradius 107.861 -0 0
lwrist 13.8413 0 0
lhand -24.1518 38.5833 -0.141776
lfingers 7.12502 -0 0
lthumb 2.33509 68.6447 -0.102413
rclavicle -1.19271e-15 -4.77083e-15 0
rhumerus -51.309 45.1199 -90.8416
rradius 117.824 -0 0
rwrist -46.3487 0 0
rhand 9.17706 -30.7146 0.121391
rfingers 7.12502 -0 0
rthumb 34.3702 -57.6968 0.0595657
1531
root -5.79588 15.3579 19.6793 -170.96 -20.2937 177.919
lfemur -46.29 10.1132 -26.7235
ltibia 83.0583 -0 0
lfoot -11.5837 18.2098 0.109183
ltoes -27.9303 0 0
rfemur -45.7793 -3.48874 16.6809
rtibia 73.659 -0 0
rfoot -18.5392 -8.86188 -0.149397
rtoes -22.4775 0 0
lowerback 19.3357 0.340823 1.4206
upperback -1.20096 1.30994 3.12221
thorax -12.0781 0.694019 2.21396
lowerneck -3.91354 6.98041 2.67434
upperneck 3.90685 9.87689 -9.48043
head 2.49557 4.80316 -2.86741
lclavicle -1.19271e-15 -4.77083e-15 0
lhumerus 50.2292 -59.2592 53.705
lradius 105.814 -0 0
lwrist 13.2724 0 0
lhand -24.2931 38.3334 -0.163238
lfingers 7.12502 -0 0
lthumb 2.19916 68.409 -0.118391
rclavicle -1.19271e-15 -4.77083e-15 0
rhumerus -52.1948 44.5667 -91.7442
rradius 118.728 -0 0
rwrist -46.7881 0 0
rhand 9.52195 -30.3877 0.111747
rfingers 7.12502 -0 0
rthumb 34.6992 -57.3141 0.0462653
1532
root -5.85942 15.3637 19.7034 -170.794 -22.8781 177.492
lfemur -45.6778 10.2726 -26.6696
ltibia 81.9897 -0 0
lfoot -11.771 18.0312 0.115557
ltoes -28.389 0 0
rfemur -46.0559 -3.93295 16.6722
rtibia 74.5382 -0 0
rfoot -18.3807 -9.10082 -0.16397
rtoes -22.0359 0 0
lowerback 19.2705 0.283415 1.07932
upperback -1.19349 1.14609 3.12628
thorax -12.0182 0.636524 2.45754
lowerneck -3.98402 6.69241 2.44684
upperneck 3.89882 9.47934 -9.23793
head 2.47218 4.60539 -2.77431
lclavicle -1.19271e-15 -4.77083e-15 0
lhumerus 47.834 -58.1364 55.6756
lradius 103.706 -0 0
lwrist 12.7109 0 0
lhand -24.435 38.08 -0.185486
lfingers 7.12502 -0 0
lthumb 2.06252 68.1701 -0.135057
rclavicle -1.19271e-15 -4.77083e-15 0
rhumerus -52.9989 44.0059 -92.5875
rradius 119.627 -0 0
rwrist -47.2025 0 0
rhand 9.85528 -30.0504 0.0993115
rfingers 7.12502 -0 0
rthumb 35.017 -56.9212 0.0304372
1533
root -5.92296 15.3696 19.7275 -170.608 -25.4404 177.041
lfemur -45.0138 10.433 -26.5962
ltibia 80.8609 -0 0
lfoot -11.9646 17.8554 0.121239
ltoes -28.8627 0 0
rfemur -46.3513 -4.39468 16.6601
rtibia 75.4366 -0 0
rfoot -18.2118 -9.34344 -0.177851
rtoes -21.5692 0 0
lowerback 19.2026 0.225789 0.725688
upperback -1.18582 0.979 3.12798
thorax -11.9565 0.577847 2.7065
lowerneck -4.05659 6.38971 2.20812
upperneck 3.89055 9.06214 -8.98172
head 2.44847 4.39786 -2.67589
lclavicle -1.19271e-15 -4.77083e-15 0
lhumerus 45.4435 -56.9489 57.5956
lradius 101.545 -0 0
lwrist 12.1587 0 0
lhand -24.5762 37.8246 -0.208309
lfingers 7.12502 -0 0
lthumb 1.92659 67.9289 -0.152259
rclavicle -1.19271e-15 -4.77083e-15 0
rhumerus -53.7221 43.4403 -93.3723
rradius 120.515 -0 0
rwrist -47.5908 0 0
rhand 10.1762 -29.7044 0.0842825
rfingers 7.12502 -0 0
rthumb 35.3227 -56.5202 0.0122965
1534
root -5.9865 15.3754 19.7516 -170.4 -27.9789 176.565
lfemur -44.3018 10.5932 -26.5036
ltibia 79.6778 -0 0
lfoot -12.1641 17.6828 0.126173
ltoes -29.3497 0 0
rfemur -46.6634 -4.87188 16.6452
rtibia 76.3501 -0 0
rfoot -18.0333 -9.58826 -0.190842
rtoes -21.0796 0 0
lowerback 19.1322 0.168162 0.361201
upperback -1.17791 0.80942 3.12736
thorax -11.893 0.518233 2.95985
lowerneck -4.13059 6.07339 1.9592
upperneck 3.88183 8.62685 -8.71282
head 2.4245 4.18138 -2.57251
lclavicle -1.19271e-15 -4.77083e-15 0
lhumerus 43.0733 -55.6991 59.451
lradius 99.3411 -0 0
lwrist 11.6178 0 0
lhand -24.7151 37.5683 -0.231473
lfingers 7.12502 -0 0
lthumb 1.79281 67.6867 -0.169827
rclavicle -1.19271e-15 -4.77083e-15 0
rhumerus -54.3653 42.8723 -94.0995
rradius 121.389 -0 0
rwrist -47.9521 0 0
rhand 10.4839 -29.3515 0.0668971
rfingers 7.12502 -0 0
rthumb 35.6157 -56.1132 -0.00790373
1535
root -6.05004 15.3812 19.7757 -170.166 -30.492 176.062
lfemur -43.5451 10.7518 -26.3925
ltibia 78.4463 -0 0
lfoot -12.3689 17.5139 0.130317
ltoes -29.8484 0 0
rfemur -46.9903 -5.36249 16.6279
rtibia 77.2748 -0 0
rfoot -17.8458 -9.83374 -0.202762
rtoes -20.5692 0 0
lowerback 19.0595 0.110759 -0.012652
upperback -1.16977 0.638084 3.12446
thorax -11.8281 0.457928 3.21659
lowerneck -4.20539 5.74458 1.70108
upperneck 3.87245 8.17506 -8.43224
head 2.40032 3.95671 -2.46457
lclavicle -1.19271e-15 -4.77083e-15 0
lhumerus 40.7355 -54.3907 61.2314
lradius 97.1032 -0 0
lwrist 11.0901 0 0
lhand -24.8503 37.3124 -0.25473
lfingers 7.12502 -0 0
lthumb 1.66261 67.4446 -0.187573
rclavicle -1.19271e-15 -4.77083e-15 0
rhumerus -54.9293 42.3046 -94.7699
rradius 122.244 -0 0
rwrist -48.2853 0 0
rhand 10.7774 -28.9938 0.0474268
rfingers 7.12502 -0 0
rthumb 35.895 -55.7021 -0.0298738
1536
root -6.11357 15.387 19.7998 -169.904 -32.9781 175.53
lfemur -42.7474 10.9074 -26.2634
ltibia 77.1722 -0 0
lfoot -12.5784 17.3492 0.133631
ltoes -30.3569 0 0
rfemur -47.3301 -5.86447 16.6086
rtibia 78.2067 -0 0
rfoot -17.6501 -10.0784 -0.213445
rtoes -20.0403 0 0
lowerback 18.9848 0.0538074 -0.394379
upperback -1.16136 0.465731 3.11933
thorax -11.7619 0.397184 3.47573
lowerneck -4.28035 5.40438 1.43475
upperneck 3.86223 7.70834 -8.14099
head 2.37599 3.72466 -2.35245
lclavicle -1.19271e-15 -4.77083e-15 0
lhumerus 38.4395 -53.028 62.9287
lradius 94.8401 -0 0
lwrist 10.5775 0 0
lhand -24.9803 37.0583 -0.277809
lfingers 7.12502 -0 0
lthumb 1.5374 67.2036 -0.205291
rclavicle -1.19271e-15 -4.77083e-15 0
rhumerus -55.415 41.7394 -95.3845
rradius 123.074 -0 0
rwrist -48.5894 0 0
rhand 11.056 -28.6329 0.0261767
rfingers 7.12502 -0 0
rthumb 36.1599 -55.289 -0.05329
1537
root -6.17711 15.3928 19.8239 -169.611 -35.4355 174.967
lfemur -41.9123 11.0588 -26.1169
ltibia 75.8614 -0 0
lfoot -12.7922 17.1892 0.136087
ltoes -30.8735 0 0
rfemur -47.6807 -6.37575 16.5877
rtibia 79.1417 -0 0
rfoot -17.4469 -10.3207 -0.22274
rtoes -19.4951 0 0
lowerback 18.9083 -0.00245807 -0.78249
upperback -1.15268 0.2931 3.11202
thorax -11.6946 0.336254 3.73628
lowerneck -4.35488 5.05391 1.1612
upperneck 3.85101 7.22826 -7.84007
head 2.35157 3.486 -2.23655
lclavicle -1.19271e-15 -4.77083e-15 0
lhumerus 36.1918 -51.6163 64.5379
lradius 92.561 -0 0
lwrist 10.0819 0 0
lhand -25.1035 36.8071 -0.300422
lfingers 7.12502 -0 0
lthumb 1.41862 66.9649 -0.222761
rclavicle -1.19271e-15 -4.77083e-15 0
rhumerus -55.8234 41.1789 -95.9443
rradius 123.875 -0 0
rwrist -48.8633 0 0
rhand 11.3189 -28.2707 0.00348286
rfingers 7.12502 -0 0
rthumb 36.4096 -54.8759 -0.0777961
